<?xml version="1.0" encoding="UTF-8" standalone="no"?>
<!-- Created with Inkscape (http://www.inkscape.org/) -->
<svg xmlns:dc="http://purl.org/dc/elements/1.1/" xmlns:cc="http://creativecommons.org/ns#" xmlns:rdf="http://www.w3.org/1999/02/22-rdf-syntax-ns#" xmlns:svg="http://www.w3.org/2000/svg" xmlns="http://www.w3.org/2000/svg" xmlns:sodipodi="http://sodipodi.sourceforge.net/DTD/sodipodi-0.dtd" xmlns:inkscape="http://www.inkscape.org/namespaces/inkscape" width="751.62939" height="553.31244" id="svg2" version="1.1" inkscape:version="0.48.0 r9654" sodipodi:docname="Megadrive logo.svg">
  <defs id="defs4">
    <inkscape:path-effect effect="skeletal" id="path-effect3036" is_visible="true" pattern="m -9.0913734,-5.0507627 0,10 10.00000005,-5.00000003 z" copytype="single_stretched" prop_scale="1" scale_y_rel="false" spacing="0" normal_offset="0" tang_offset="0" prop_units="false" vertical_pattern="false" fuse_tolerance="0"/>
    <inkscape:path-effect effect="spiro" id="path-effect3034" is_visible="true"/>
    <inkscape:path-effect effect="skeletal" id="path-effect3030" is_visible="true" pattern="M 0,0 0,10 10,5 z" copytype="single_stretched" prop_scale="1" scale_y_rel="false" spacing="0" normal_offset="0" tang_offset="0" prop_units="false" vertical_pattern="false" fuse_tolerance="0"/>
    <inkscape:path-effect effect="spiro" id="path-effect3028" is_visible="true"/>
    <inkscape:path-effect effect="skeletal" id="path-effect3024" is_visible="true" pattern="M 0,0 0,10 10,5 z" copytype="single_stretched" prop_scale="1" scale_y_rel="false" spacing="0" normal_offset="0" tang_offset="0" prop_units="false" vertical_pattern="false" fuse_tolerance="0"/>
    <inkscape:path-effect effect="spiro" id="path-effect3022" is_visible="true"/>
    <inkscape:path-effect effect="skeletal" id="path-effect3018" is_visible="true" pattern="M 0,0 0,10 10,5 z" copytype="single_stretched" prop_scale="1" scale_y_rel="false" spacing="0" normal_offset="0" tang_offset="0" prop_units="false" vertical_pattern="false" fuse_tolerance="0"/>
    <inkscape:path-effect effect="spiro" id="path-effect3016" is_visible="true"/>
    <inkscape:path-effect effect="skeletal" id="path-effect3012" is_visible="true" pattern="M 0,0 0,10 10,5 z" copytype="single_stretched" prop_scale="1" scale_y_rel="false" spacing="0" normal_offset="0" tang_offset="0" prop_units="false" vertical_pattern="false" fuse_tolerance="0"/>
    <inkscape:path-effect effect="spiro" id="path-effect3010" is_visible="true"/>
  </defs>
  <sodipodi:namedview id="base" pagecolor="#ffffff" bordercolor="#666666" borderopacity="1.0" inkscape:pageopacity="0.0" inkscape:pageshadow="2" inkscape:zoom="0.7" inkscape:cx="513.14019" inkscape:cy="253.10299" inkscape:document-units="px" inkscape:current-layer="layer2" showgrid="false" inkscape:window-width="1024" inkscape:window-height="706" inkscape:window-x="-8" inkscape:window-y="-8" inkscape:window-maximized="1" fit-margin-top="0" fit-margin-left="0" fit-margin-right="0" fit-margin-bottom="20"/>
  <metadata id="metadata7">
    <rdf:RDF>
      <cc:Work rdf:about="">
        <dc:format>image/svg+xml</dc:format>
        <dc:type rdf:resource="http://purl.org/dc/dcmitype/StillImage"/>
        <dc:title/>
      </cc:Work>
    </rdf:RDF>
  </metadata>
  <g inkscape:groupmode="layer" id="layer2" inkscape:label="Layer" style="display:inline" transform="translate(2.9575319,-261.45315)">
    <rect style="fill:#000000;fill-opacity:1;stroke:#000000;stroke-width:7.53235769;stroke-linecap:round;stroke-linejoin:miter;stroke-miterlimit:4;stroke-opacity:0;stroke-dasharray:none;stroke-dashoffset:0" id="rect4013" width="744.09705" height="438.95099" x="0.80864698" y="265.21933"/>
    <g id="g3975">
      <g id="g3903"/>
    </g>
    <g style="font-size:27.4551754px;font-style:normal;font-variant:normal;font-weight:bold;font-stretch:normal;text-align:center;line-height:125%;letter-spacing:-2.22699785px;word-spacing:4.81999922px;text-anchor:middle;fill:#ffffff;fill-opacity:1;stroke:none;font-family:Helvetica LT Std;-inkscape-font-specification:Helvetica LT Std Bold" id="text4033">
      <path d="m 115.96997,629.34489 7.27553,0 1.26292,4.06331 4.47514,0 -6.94607,-19.71256 -4.74969,0 -7.02843,19.71256 4.33786,0 z m 3.62404,-11.20157 0.0549,0 2.44348,7.79717 -5.02423,0 z" style="fill:#ffffff" id="path3078" inkscape:connector-curvature="0"/>
      <path d="m 145.19702,613.69564 -4.20059,0 0,12.98613 c 0.0109,1.20173 -0.29915,2.12718 -0.93003,2.77637 -0.6309,0.6492 -1.64787,0.97751 -3.05092,0.98494 -0.98724,0.007 -1.81317,-0.30886 -2.4778,-0.94719 -0.66464,-0.63832 -1.01011,-1.64042 -1.03642,-3.0063 l 0,-12.79395 -4.20058,0 0,13.0685 c 0.0212,0.98838 0.15042,1.88066 0.3878,2.67684 0.23736,0.79619 0.62059,1.49629 1.14967,2.1003 0.9163,0.95234 1.95272,1.59409 3.10926,1.92526 1.15652,0.33118 2.20667,0.48561 3.15044,0.4633 2.51153,0.0154 4.48255,-0.5714 5.91308,-1.76054 1.43049,-1.18913 2.15919,-3.07322 2.18609,-5.65226 z" style="fill:#ffffff" id="path3080" inkscape:connector-curvature="0"/>
      <path d="m 147.02415,633.4082 8.53845,0 c 2.14943,-0.0491 3.82045,-0.62807 5.01305,-1.73677 1.19257,-1.1087 2.02367,-2.45229 2.4933,-4.03077 0.4696,-1.57848 0.69466,-3.09697 0.67519,-4.55547 0.0241,-1.29138 -0.17661,-2.65599 -0.60197,-4.09382 -0.4254,-1.4378 -1.2199,-2.66818 -2.38349,-3.69115 -1.16362,-1.02293 -2.84074,-1.55779 -5.03135,-1.60458 l -8.70318,0 z m 4.03586,-16.30816 3.9535,0 c 0.60908,-0.0302 1.26087,0.082 1.95539,0.33657 0.69449,0.25457 1.29138,0.83248 1.79066,1.73373 0.49926,0.90127 0.76059,2.30689 0.78399,4.21685 0.0229,1.69306 -0.3043,3.20078 -0.98151,4.52319 -0.67723,1.32241 -1.84177,2.02022 -3.49362,2.09343 l -4.00841,0 z" style="fill:#ffffff" id="path3082" inkscape:connector-curvature="0"/>
      <path d="m 168.42657,613.69564 -4.11822,0 0,19.71256 4.11822,0 z" style="fill:#ffffff" id="path3084" inkscape:connector-curvature="0"/>
      <path d="m 169.14678,623.55192 c 0.0686,3.04088 0.69399,5.30845 1.87608,6.8027 1.18208,1.49425 2.50906,2.47449 3.98095,2.94071 1.47187,0.46623 2.67683,0.67773 3.61488,0.63451 0.93803,0.0432 2.14299,-0.16828 3.61489,-0.63451 1.47186,-0.46622 2.79884,-1.44646 3.98094,-2.94071 1.18207,-1.49425 1.80743,-3.76182 1.87609,-6.8027 -0.0687,-3.04086 -0.69402,-5.30842 -1.87609,-6.80269 -1.18209,-1.49424 -2.50908,-2.47448 -3.98094,-2.94072 -1.4719,-0.4662 -2.67686,-0.67771 -3.61489,-0.63451 -0.93805,-0.0432 -2.14301,0.16831 -3.61488,0.63451 -1.47189,0.46624 -2.79887,1.44648 -3.98095,2.94072 -1.18209,1.49427 -1.80745,3.76183 -1.87608,6.80269 z m 4.11822,0 c 0.0841,-2.70143 0.69838,-4.53975 1.84291,-5.51499 1.14451,-0.9752 2.31477,-1.43392 3.51078,-1.37617 1.19599,-0.0577 2.36625,0.40097 3.51079,1.37617 1.1445,0.97524 1.75881,2.81356 1.8429,5.51499 -0.0841,2.70145 -0.6984,4.53978 -1.8429,5.51499 -1.14454,0.97522 -2.3148,1.43394 -3.51079,1.37617 -1.19601,0.0578 -2.36627,-0.40095 -3.51078,-1.37617 -1.14453,-0.97521 -1.75883,-2.81354 -1.84291,-5.51499 z" style="fill:#ffffff" id="path3086" inkscape:connector-curvature="0"/>
      <path d="m 203.5211,629.34489 7.27552,0 1.26293,4.06331 4.47513,0 -6.94607,-19.71256 -4.74968,0 -7.02844,19.71256 4.33787,0 z m 3.62403,-11.20157 0.0549,0 2.44348,7.79717 -5.02423,0 z" style="fill:#ffffff" id="path3088" inkscape:connector-curvature="0"/>
      <path d="m 228.98684,627.42305 -0.0549,0 -7.82463,-13.72741 -4.33786,0 0,19.71256 3.84368,0 0,-14.05687 0.0549,0 8.04426,14.05687 4.11822,0 0,-19.71256 -3.84367,0 z" style="fill:#ffffff" id="path3090" inkscape:connector-curvature="0"/>
      <path d="m 234.57528,633.4082 8.53845,0 c 2.14943,-0.0491 3.82044,-0.62807 5.01305,-1.73677 1.19257,-1.1087 2.02367,-2.45229 2.4933,-4.03077 0.4696,-1.57848 0.69466,-3.09697 0.67519,-4.55547 0.024,-1.29138 -0.17661,-2.65599 -0.60197,-4.09382 -0.4254,-1.4378 -1.2199,-2.66818 -2.38349,-3.69115 -1.16362,-1.02293 -2.84074,-1.55779 -5.03135,-1.60458 l -8.70318,0 z m 4.03586,-16.30816 3.9535,0 c 0.60907,-0.0302 1.26087,0.082 1.95539,0.33657 0.69449,0.25457 1.29138,0.83248 1.79066,1.73373 0.49926,0.90127 0.76059,2.30689 0.78399,4.21685 0.0229,1.69306 -0.3043,3.20078 -0.98151,4.52319 -0.67723,1.32241 -1.84177,2.02022 -3.49363,2.09343 l -4.0084,0 z" style="fill:#ffffff" id="path3092" inkscape:connector-curvature="0"/>
      <path d="m 269.53472,628.63106 -0.0549,0 -4.22804,-14.93542 -4.42023,0 6.64407,19.71256 3.92604,0 6.69897,-19.71256 -4.28295,0 z" style="fill:#ffffff" id="path3094" inkscape:connector-curvature="0"/>
      <path d="m 282.29743,613.69564 -4.11823,0 0,19.71256 4.11823,0 z" style="fill:#ffffff" id="path3096" inkscape:connector-curvature="0"/>
      <path d="m 282.88036,627.34069 c -0.0292,0.85059 0.16642,1.78202 0.58672,2.79429 0.42029,1.01227 1.24021,1.88879 2.45975,2.62956 1.21953,0.74077 3.01358,1.12921 5.38216,1.1653 0.64043,0.0302 1.56813,-0.0881 2.78311,-0.35487 1.21494,-0.26676 2.33381,-0.86297 3.3566,-1.78864 1.02276,-0.92566 1.5661,-2.36178 1.63001,-4.30837 -0.0469,-1.72907 -0.57085,-2.97255 -1.57179,-3.73042 -1.00098,-0.75786 -2.19755,-1.28064 -3.58972,-1.56836 l -4.80459,-1.18056 c -0.4473,-0.0738 -0.89801,-0.24879 -1.35216,-0.52507 -0.45415,-0.27625 -0.69895,-0.7876 -0.73441,-1.53404 0.0452,-0.87911 0.42154,-1.4957 1.12908,-1.84977 0.70753,-0.35403 1.47512,-0.52448 2.30277,-0.51134 1.73479,0.0687 2.84328,0.45302 3.32547,1.1531 0.48216,0.70011 0.71896,1.30412 0.71039,1.81202 l 3.9535,0 c 0.008,-0.83922 -0.21271,-1.7476 -0.66299,-2.72515 -0.45031,-0.97751 -1.23463,-1.82081 -2.35298,-2.52991 -1.11837,-0.70906 -2.6755,-1.08055 -4.67139,-1.11446 -2.10741,0.0343 -3.70996,0.39591 -4.80764,1.08497 -1.09769,0.6891 -1.83998,1.50021 -2.22689,2.43331 -0.38691,0.93314 -0.56791,1.78289 -0.543,2.54924 0.0618,2.09286 0.70696,3.50793 1.93557,4.2452 1.2286,0.73728 2.66997,1.2532 4.32413,1.54776 l 2.11402,0.49419 c 1.06158,0.22193 1.91725,0.49877 2.56703,0.83051 0.64975,0.33175 0.98378,0.86941 1.0021,1.61297 -0.0498,1.01926 -0.49248,1.70563 -1.32813,2.05911 -0.83566,0.35348 -1.76569,0.51821 -2.79009,0.49419 -1.74568,-0.0641 -2.88734,-0.45758 -3.42499,-1.18056 -0.53766,-0.72297 -0.78704,-1.39104 -0.74814,-2.0042 z" style="fill:#ffffff" id="path3098" inkscape:connector-curvature="0"/>
      <path d="m 315.79491,613.69564 -4.20059,0 0,12.98613 c 0.0109,1.20173 -0.29915,2.12718 -0.93003,2.77637 -0.6309,0.6492 -1.64787,0.97751 -3.05092,0.98494 -0.98724,0.007 -1.81317,-0.30886 -2.4778,-0.94719 -0.66464,-0.63832 -1.01011,-1.64042 -1.03641,-3.0063 l 0,-12.79395 -4.20059,0 0,13.0685 c 0.0212,0.98838 0.15042,1.88066 0.3878,2.67684 0.23736,0.79619 0.62059,1.49629 1.14967,2.1003 0.9163,0.95234 1.95272,1.59409 3.10926,1.92526 1.15652,0.33118 2.20667,0.48561 3.15044,0.4633 2.51153,0.0154 4.48255,-0.5714 5.91308,-1.76054 1.43049,-1.18913 2.15919,-3.07322 2.18609,-5.65226 z" style="fill:#ffffff" id="path3100" inkscape:connector-curvature="0"/>
      <path d="m 321.79517,629.34489 7.27553,0 1.26292,4.06331 4.47513,0 -6.94607,-19.71256 -4.74968,0 -7.02844,19.71256 4.33787,0 z m 3.62403,-11.20157 0.0549,0 2.44348,7.79717 -5.02423,0 z" style="fill:#ffffff" id="path3102" inkscape:connector-curvature="0"/>
      <path d="m 339.35392,613.69564 -4.11822,0 0,19.71256 13.91959,0 0,-3.56912 -9.80137,0 z" style="fill:#ffffff" id="path3104" inkscape:connector-curvature="0"/>
      <path d="m 363.78911,613.69564 -4.11822,0 0,19.71256 4.11822,0 z" style="fill:#ffffff" id="path3106" inkscape:connector-curvature="0"/>
      <path d="m 377.41309,627.42305 -0.0549,0 -7.82463,-13.72741 -4.33786,0 0,19.71256 3.84367,0 0,-14.05687 0.0549,0 8.04427,14.05687 4.11822,0 0,-19.71256 -3.84367,0 z" style="fill:#ffffff" id="path3108" inkscape:connector-curvature="0"/>
      <path d="m 391.37524,617.1824 5.9577,0 0,-3.48676 -16.03362,0 0,3.48676 5.9577,0 0,16.2258 4.11822,0 z" style="fill:#ffffff" id="path3110" inkscape:connector-curvature="0"/>
      <path d="m 412.0548,613.69564 -14.49615,0 0,19.71256 14.96288,0 0,-3.48676 -10.92702,0 0,-5.1066 9.60919,0 0,-3.48676 -9.60919,0 0,-4.14568 10.46029,0 z" style="fill:#ffffff" id="path3112" inkscape:connector-curvature="0"/>
      <path d="m 417.78909,613.69564 -4.11823,0 0,19.71256 13.9196,0 0,-3.56912 -9.80137,0 z" style="fill:#ffffff" id="path3114" inkscape:connector-curvature="0"/>
      <path d="m 432.34618,613.69564 -4.11822,0 0,19.71256 13.9196,0 0,-3.56912 -9.80138,0 z" style="fill:#ffffff" id="path3116" inkscape:connector-curvature="0"/>
      <path d="m 446.57386,613.69564 -4.11823,0 0,19.71256 4.11823,0 z" style="fill:#ffffff" id="path3118" inkscape:connector-curvature="0"/>
      <path d="m 457.42491,626.10522 4.58495,0 c -0.51479,1.92242 -1.30412,3.14301 -2.36798,3.66179 -1.06388,0.51878 -1.86694,0.74414 -2.40916,0.67607 -1.46426,0.0538 -2.77065,-0.40381 -3.91917,-1.37274 -1.14854,-0.96892 -1.75483,-2.77178 -1.81888,-5.4086 0.052,-2.50524 0.62745,-4.31725 1.72622,-5.43605 1.09875,-1.11877 2.40858,-1.66787 3.92947,-1.64729 1.4528,0.087 2.53498,0.53081 3.24653,1.33156 0.71152,0.80078 1.06615,1.43681 1.06388,1.90811 l 4.11822,0 c -0.0641,-0.93769 -0.39659,-1.91454 -0.99753,-2.93055 -0.60097,-1.01598 -1.52528,-1.88098 -2.77293,-2.59499 -1.24769,-0.71398 -2.87362,-1.08682 -4.87781,-1.11853 l -0.0549,0 c -2.20131,0.0297 -4.0096,0.53471 -5.42487,1.5151 -1.41528,0.98043 -2.46297,2.25826 -3.14307,3.83351 -0.6801,1.57527 -1.01803,3.27001 -1.01379,5.08422 0.0806,3.45703 0.99695,6.04235 2.74891,7.75599 1.75196,1.71364 3.85568,2.56931 6.31118,2.56702 1.76453,-0.0492 3.10867,-0.39695 4.03243,-1.04328 0.92372,-0.64633 1.62954,-1.29609 2.11745,-1.94929 l 0.41182,2.47093 2.74548,0 0,-10.62501 -8.23644,0 z" style="fill:#ffffff" id="path3120" inkscape:connector-curvature="0"/>
      <path d="m 481.78386,613.69564 -14.49615,0 0,19.71256 14.96288,0 0,-3.48676 -10.92702,0 0,-5.1066 9.60919,0 0,-3.48676 -9.60919,0 0,-4.14568 10.46029,0 z" style="fill:#ffffff" id="path3122" inkscape:connector-curvature="0"/>
      <path d="m 495.42514,627.42305 -0.0549,0 -7.82462,-13.72741 -4.33787,0 0,19.71256 3.84368,0 0,-14.05687 0.0549,0 8.04426,14.05687 4.11822,0 0,-19.71256 -3.84367,0 z" style="fill:#ffffff" id="path3124" inkscape:connector-curvature="0"/>
      <path d="m 509.3873,617.1824 5.95769,0 0,-3.48676 -16.03361,0 0,3.48676 5.95769,0 0,16.2258 4.11823,0 z" style="fill:#ffffff" id="path3126" inkscape:connector-curvature="0"/>
      <path d="m 534.15194,617.1824 5.9577,0 0,-3.48676 -16.03362,0 0,3.48676 5.9577,0 0,16.2258 4.11822,0 z" style="fill:#ffffff" id="path3128" inkscape:connector-curvature="0"/>
      <path d="m 554.8315,613.69564 -14.49615,0 0,19.71256 14.96288,0 0,-3.48676 -10.92702,0 0,-5.1066 9.60919,0 0,-3.48676 -9.60919,0 0,-4.14568 10.46029,0 z" style="fill:#ffffff" id="path3130" inkscape:connector-curvature="0"/>
      <path d="m 556.44757,633.4082 4.03585,0 0,-7.7148 4.2555,0 c 1.46711,-0.0126 2.38341,0.27341 2.74892,0.85796 0.36547,0.58457 0.51991,1.5432 0.4633,2.87589 10e-4,0.99639 0.04,1.79715 0.11668,2.4023 0.0766,0.60515 0.18416,1.13137 0.32259,1.57865 l 4.5575,0 0,-0.52164 c -0.42099,-0.12755 -0.67723,-0.46273 -0.76873,-1.00553 -0.0915,-0.5428 -0.12814,-1.51631 -0.10982,-2.92051 -0.003,-1.77312 -0.2168,-2.97655 -0.64176,-3.61031 -0.42499,-0.63374 -1.04387,-1.09589 -1.85663,-1.38647 0.97978,-0.34832 1.73135,-0.94203 2.25473,-1.78113 0.52334,-0.83907 0.78759,-1.81029 0.79276,-2.91364 0.0205,-0.60467 -0.1273,-1.33849 -0.44335,-2.20147 -0.31609,-0.86295 -0.92348,-1.63134 -1.82219,-2.30519 -0.89873,-0.67381 -2.21182,-1.02937 -3.93925,-1.06667 l -9.9661,0 z m 4.03585,-11.03684 0,-5.27132 5.13406,0 c 1.17711,0.0423 1.95957,0.34206 2.34738,0.89914 0.38779,0.55712 0.56624,1.11766 0.53537,1.68161 10e-4,0.96494 -0.26198,1.65703 -0.78932,2.07627 -0.52738,0.41927 -1.32585,0.62404 -2.39544,0.6143 z" style="fill:#ffffff" id="path3132" inkscape:connector-curvature="0"/>
      <path d="m 592.97759,613.69564 -5.9577,0 -3.51422,15.53943 -0.0549,0 -3.56912,-15.53943 -6.01261,0 0,19.71256 3.84367,0 0,-16.47289 0.0549,0 3.59659,16.47289 4.03585,0 3.67895,-16.47289 0.0549,0 0,16.47289 3.84368,0 z" style="fill:#ffffff" id="path3134" inkscape:connector-curvature="0"/>
      <path d="m 598.46656,613.69564 -4.11823,0 0,19.71256 4.11823,0 z" style="fill:#ffffff" id="path3136" inkscape:connector-curvature="0"/>
      <path d="m 612.09051,627.42305 -0.0549,0 -7.82463,-13.72741 -4.33786,0 0,19.71256 3.84367,0 0,-14.05687 0.0549,0 8.04427,14.05687 4.11822,0 0,-19.71256 -3.84368,0 z" style="fill:#ffffff" id="path3138" inkscape:connector-curvature="0"/>
      <path d="m 621.85208,629.34489 7.27553,0 1.26292,4.06331 4.47514,0 -6.94607,-19.71256 -4.74969,0 -7.02843,19.71256 4.33786,0 z m 3.62404,-11.20157 0.0549,0 2.44348,7.79717 -5.02423,0 z" style="fill:#ffffff" id="path3140" inkscape:connector-curvature="0"/>
      <path d="m 639.41085,613.69564 -4.11822,0 0,19.71256 13.91959,0 0,-3.56912 -9.80137,0 z" style="fill:#ffffff" id="path3142" inkscape:connector-curvature="0"/>
      <path d="m 182.60055,658.88672 0,8.84045 4.11822,0 0,-19.71256 -4.11822,0 0,7.46771 -7.68735,0 0,-7.46771 -4.11822,0 0,19.71256 4.11822,0 0,-8.84045 z" style="fill:#ffffff" id="path3144" inkscape:connector-curvature="0"/>
      <path d="m 192.33467,648.01461 -4.11822,0 0,19.71256 4.11822,0 z" style="fill:#ffffff" id="path3146" inkscape:connector-curvature="0"/>
      <path d="m 203.1857,660.42419 4.58496,0 c -0.51479,1.92241 -1.30412,3.14301 -2.36798,3.66179 -1.06389,0.51878 -1.86694,0.74414 -2.40916,0.67607 -1.46427,0.0538 -2.77066,-0.40381 -3.91918,-1.37274 -1.14853,-0.96892 -1.75482,-2.77179 -1.81888,-5.4086 0.0521,-2.50524 0.62745,-4.31726 1.72623,-5.43605 1.09875,-1.11877 2.40857,-1.66787 3.92947,-1.64729 1.4528,0.087 2.53498,0.53081 3.24653,1.33155 0.71152,0.80079 1.06615,1.43682 1.06387,1.90812 l 4.11823,0 c -0.0641,-0.93769 -0.39659,-1.91454 -0.99753,-2.93055 -0.60097,-1.01598 -1.52528,-1.88098 -2.77294,-2.59499 -1.24768,-0.71398 -2.87361,-1.08682 -4.8778,-1.11853 l -0.0549,0 c -2.20131,0.0297 -4.0096,0.53471 -5.42487,1.5151 -1.41528,0.98042 -2.46297,2.25826 -3.14307,3.8335 -0.6801,1.57528 -1.01803,3.27002 -1.01379,5.08423 0.0806,3.45703 0.99695,6.04235 2.74891,7.75599 1.75196,1.71364 3.85568,2.56931 6.31118,2.56702 1.76453,-0.0492 3.10867,-0.39695 4.03242,-1.04328 0.92373,-0.64633 1.62955,-1.29609 2.11746,-1.94929 l 0.41182,2.47093 2.74548,0 0,-10.62501 -8.23645,0 z" style="fill:#ffffff" id="path3148" inkscape:connector-curvature="0"/>
      <path d="m 224.71684,658.88672 0,8.84045 4.11822,0 0,-19.71256 -4.11822,0 0,7.46771 -7.68735,0 0,-7.46771 -4.11822,0 0,19.71256 4.11822,0 0,-8.84045 z" style="fill:#ffffff" id="path3150" inkscape:connector-curvature="0"/>
      <path d="m 250.12199,660.42419 4.58496,0 c -0.51479,1.92241 -1.30412,3.14301 -2.36798,3.66179 -1.06389,0.51878 -1.86694,0.74414 -2.40916,0.67607 -1.46427,0.0538 -2.77066,-0.40381 -3.91918,-1.37274 -1.14853,-0.96892 -1.75482,-2.77179 -1.81888,-5.4086 0.052,-2.50524 0.62745,-4.31726 1.72622,-5.43605 1.09876,-1.11877 2.40858,-1.66787 3.92948,-1.64729 1.4528,0.087 2.53498,0.53081 3.24653,1.33155 0.71152,0.80079 1.06614,1.43682 1.06387,1.90812 l 4.11823,0 c -0.0641,-0.93769 -0.39659,-1.91454 -0.99753,-2.93055 -0.60097,-1.01598 -1.52529,-1.88098 -2.77294,-2.59499 -1.24768,-0.71398 -2.87361,-1.08682 -4.8778,-1.11853 l -0.0549,0 c -2.20131,0.0297 -4.0096,0.53471 -5.42487,1.5151 -1.41529,0.98042 -2.46297,2.25826 -3.14307,3.8335 -0.6801,1.57528 -1.01803,3.27002 -1.0138,5.08423 0.0806,3.45703 0.99696,6.04235 2.74892,7.75599 1.75195,1.71364 3.85568,2.56931 6.31118,2.56702 1.76453,-0.0492 3.10867,-0.39695 4.03242,-1.04328 0.92373,-0.64633 1.62954,-1.29609 2.11746,-1.94929 l 0.41182,2.47093 2.74548,0 0,-10.62501 -8.23645,0 z" style="fill:#ffffff" id="path3152" inkscape:connector-curvature="0"/>
      <path d="m 259.98483,667.72717 4.03586,0 0,-7.7148 4.2555,0 c 1.4671,-0.0126 2.38341,0.27341 2.74891,0.85796 0.36548,0.58457 0.51991,1.5432 0.4633,2.87589 10e-4,0.99639 0.04,1.79715 0.11668,2.4023 0.0766,0.60515 0.18417,1.13137 0.3226,1.57865 l 4.5575,0 0,-0.52164 c -0.42099,-0.12755 -0.67724,-0.46273 -0.76874,-1.00553 -0.0915,-0.54281 -0.12814,-1.51631 -0.10982,-2.92051 -0.003,-1.77312 -0.21679,-2.97655 -0.64175,-3.61031 -0.425,-0.63374 -1.04387,-1.09589 -1.85663,-1.38647 0.97977,-0.34832 1.73135,-0.94203 2.25472,-1.78113 0.52334,-0.83907 0.78759,-1.81029 0.79276,-2.91364 0.0205,-0.60467 -0.12729,-1.33849 -0.44334,-2.20147 -0.31609,-0.86295 -0.92349,-1.63134 -1.82219,-2.30519 -0.89874,-0.67381 -2.21182,-1.02937 -3.93926,-1.06667 l -9.9661,0 z m 4.03586,-11.03684 0,-5.27132 5.13405,0 c 1.17711,0.0423 1.95958,0.34206 2.34739,0.89914 0.38778,0.55712 0.56624,1.11766 0.53537,1.68161 10e-4,0.96494 -0.26198,1.65703 -0.78933,2.07627 -0.52737,0.41927 -1.32585,0.62404 -2.39543,0.6143 z" style="fill:#ffffff" id="path3154" inkscape:connector-curvature="0"/>
      <path d="m 281.77162,663.66386 7.27553,0 1.26292,4.06331 4.47513,0 -6.94607,-19.71256 -4.74968,0 -7.02843,19.71256 4.33786,0 z m 3.62404,-11.20157 0.0549,0 2.44347,7.79717 -5.02423,0 z" style="fill:#ffffff" id="path3156" inkscape:connector-curvature="0"/>
      <path d="m 295.21215,667.72717 8.53845,0 c 2.14943,-0.0492 3.82044,-0.62807 5.01305,-1.73677 1.19257,-1.1087 2.02367,-2.45229 2.4933,-4.03077 0.46959,-1.57848 0.69466,-3.09697 0.67519,-4.55547 0.024,-1.29138 -0.17662,-2.65599 -0.60198,-4.09382 -0.4254,-1.4378 -1.21989,-2.66818 -2.38348,-3.69115 -1.16363,-1.02293 -2.84074,-1.55779 -5.03135,-1.60458 l -8.70318,0 z m 4.03586,-16.30816 3.95349,0 c 0.60908,-0.0301 1.26088,0.082 1.9554,0.33657 0.69449,0.25457 1.29137,0.83248 1.79066,1.73372 0.49926,0.90128 0.76059,2.3069 0.78399,4.21686 0.0229,1.69306 -0.30431,3.20078 -0.98151,4.52318 -0.67723,1.32242 -1.84178,2.02023 -3.49363,2.09343 l -4.0084,0 z" style="fill:#ffffff" id="path3158" inkscape:connector-curvature="0"/>
      <path d="m 327.32195,648.01461 -14.49615,0 0,19.71256 14.96288,0 0,-3.48676 -10.92702,0 0,-5.1066 9.60919,0 0,-3.48676 -9.60919,0 0,-4.14568 10.46029,0 z" style="fill:#ffffff" id="path3160" inkscape:connector-curvature="0"/>
      <path d="m 358.06189,648.01461 -5.95769,0 -3.51422,15.53943 -0.0549,0 -3.56913,-15.53943 -6.0126,0 0,19.71256 3.84367,0 0,-16.47289 0.0549,0 3.59658,16.47289 4.03586,0 3.67895,-16.47289 0.0549,0 0,16.47289 3.84367,0 z" style="fill:#ffffff" id="path3162" inkscape:connector-curvature="0"/>
      <path d="m 375.54862,648.01461 -4.20059,0 0,12.98613 c 0.0109,1.20173 -0.29915,2.12718 -0.93003,2.77637 -0.6309,0.64919 -1.64787,0.97751 -3.05092,0.98494 -0.98723,0.007 -1.81317,-0.30886 -2.47779,-0.94719 -0.66465,-0.63832 -1.01012,-1.64042 -1.03642,-3.0063 l 0,-12.79395 -4.20059,0 0,13.0685 c 0.0212,0.98837 0.15043,1.88066 0.3878,2.67684 0.23737,0.79619 0.62059,1.49629 1.14967,2.10029 0.9163,0.95234 1.95272,1.5941 3.10926,1.92527 1.15652,0.33118 2.20667,0.48561 3.15044,0.4633 2.51153,0.0154 4.48256,-0.5714 5.91308,-1.76054 1.43049,-1.18913 2.15919,-3.07322 2.18609,-5.65226 z" style="fill:#ffffff" id="path3164" inkscape:connector-curvature="0"/>
      <path d="m 381.49397,648.01461 -4.11822,0 0,19.71256 13.91959,0 0,-3.56912 -9.80137,0 z" style="fill:#ffffff" id="path3166" inkscape:connector-curvature="0"/>
      <path d="m 400.3066,651.50137 5.95769,0 0,-3.48676 -16.03361,0 0,3.48676 5.95769,0 0,16.2258 4.11823,0 z" style="fill:#ffffff" id="path3168" inkscape:connector-curvature="0"/>
      <path d="m 410.27875,648.01461 -4.11822,0 0,19.71256 4.11822,0 z" style="fill:#ffffff" id="path3170" inkscape:connector-curvature="0"/>
      <path d="m 415.99574,660.61637 4.72223,0 c 1.74574,-0.0446 3.07408,-0.45571 3.98501,-1.23343 0.91091,-0.77771 1.52746,-1.65457 1.84965,-2.63058 0.32215,-0.97599 0.47298,-1.7837 0.45249,-2.42314 -0.0166,-1.95671 -0.55998,-3.49304 -1.63013,-4.60898 -1.07018,-1.1159 -2.56761,-1.68445 -4.49229,-1.70563 l -9.00518,0 0,19.71256 4.11822,0 z m 0,-3.40439 0,-5.79297 3.26712,0 c 1.26806,-0.007 2.19123,0.20593 2.76951,0.63832 0.57825,0.43243 0.8631,1.12567 0.85453,2.07971 0.064,0.5125 -0.0641,1.13481 -0.38437,1.86692 -0.32032,0.73214 -1.21717,1.13481 -2.69057,1.20802 z" style="fill:#ffffff" id="path3172" inkscape:connector-curvature="0"/>
      <path d="m 443.77624,648.01461 -4.20059,0 0,12.98613 c 0.0109,1.20173 -0.29916,2.12718 -0.93003,2.77637 -0.6309,0.64919 -1.64788,0.97751 -3.05092,0.98494 -0.98724,0.007 -1.81317,-0.30886 -2.4778,-0.94719 -0.66464,-0.63832 -1.01011,-1.64042 -1.03642,-3.0063 l 0,-12.79395 -4.20059,0 0,13.0685 c 0.0212,0.98837 0.15043,1.88066 0.3878,2.67684 0.23737,0.79619 0.62059,1.49629 1.14967,2.10029 0.9163,0.95234 1.95272,1.5941 3.10926,1.92527 1.15653,0.33118 2.20668,0.48561 3.15044,0.4633 2.51154,0.0154 4.48256,-0.5714 5.91309,-1.76054 1.43049,-1.18913 2.15919,-3.07322 2.18609,-5.65226 z" style="fill:#ffffff" id="path3174" inkscape:connector-curvature="0"/>
      <path d="m 445.60336,667.72717 4.03586,0 0,-7.7148 4.2555,0 c 1.4671,-0.0126 2.38341,0.27341 2.74891,0.85796 0.36548,0.58457 0.51991,1.5432 0.4633,2.87589 0.001,0.99639 0.04,1.79715 0.11668,2.4023 0.0766,0.60515 0.18417,1.13137 0.3226,1.57865 l 4.5575,0 0,-0.52164 c -0.42099,-0.12755 -0.67724,-0.46273 -0.76874,-1.00553 -0.0915,-0.54281 -0.12814,-1.51631 -0.10982,-2.92051 -0.003,-1.77312 -0.21679,-2.97655 -0.64175,-3.61031 -0.425,-0.63374 -1.04387,-1.09589 -1.85663,-1.38647 0.97977,-0.34832 1.73135,-0.94203 2.25472,-1.78113 0.52334,-0.83907 0.78759,-1.81029 0.79276,-2.91364 0.0205,-0.60467 -0.12729,-1.33849 -0.44334,-2.20147 -0.31609,-0.86295 -0.92349,-1.63134 -1.82219,-2.30519 -0.89874,-0.67381 -2.21182,-1.02937 -3.93926,-1.06667 l -9.9661,0 z m 4.03586,-11.03684 0,-5.27132 5.13405,0 c 1.17711,0.0423 1.95958,0.34206 2.34739,0.89914 0.38778,0.55712 0.56624,1.11766 0.53537,1.68161 0.001,0.96494 -0.26198,1.65703 -0.78933,2.07627 -0.52737,0.41927 -1.32585,0.62404 -2.39543,0.6143 z" style="fill:#ffffff" id="path3176" inkscape:connector-curvature="0"/>
      <path d="m 467.33526,660.61637 4.72223,0 c 1.74574,-0.0446 3.07408,-0.45571 3.98502,-1.23343 0.91091,-0.77771 1.52745,-1.65457 1.84964,-2.63058 0.32215,-0.97599 0.47298,-1.7837 0.4525,-2.42314 -0.0166,-1.95671 -0.55998,-3.49304 -1.63013,-4.60898 -1.07019,-1.1159 -2.56762,-1.68445 -4.4923,-1.70563 l -9.00518,0 0,19.71256 4.11822,0 z m 0,-3.40439 0,-5.79297 3.26713,0 c 1.26806,-0.007 2.19122,0.20593 2.7695,0.63832 0.57826,0.43243 0.8631,1.12567 0.85453,2.07971 0.0641,0.5125 -0.0641,1.13481 -0.38436,1.86692 -0.32032,0.73214 -1.21718,1.13481 -2.69058,1.20802 z" style="fill:#ffffff" id="path3178" inkscape:connector-curvature="0"/>
      <path d="m 478.45067,657.87089 c 0.0686,3.04088 0.69399,5.30845 1.87608,6.8027 1.18207,1.49425 2.50906,2.47449 3.98095,2.94071 1.47187,0.46623 2.67683,0.67773 3.61488,0.63451 0.93803,0.0432 2.14299,-0.16828 3.61489,-0.63451 1.47186,-0.46622 2.79884,-1.44646 3.98094,-2.94071 1.18207,-1.49425 1.80743,-3.76182 1.87608,-6.8027 -0.0686,-3.04086 -0.69401,-5.30842 -1.87608,-6.80269 -1.1821,-1.49424 -2.50908,-2.47448 -3.98094,-2.94072 -1.4719,-0.4662 -2.67686,-0.67771 -3.61489,-0.63451 -0.93805,-0.0432 -2.14301,0.16831 -3.61488,0.63451 -1.47189,0.46624 -2.79888,1.44648 -3.98095,2.94072 -1.18209,1.49427 -1.80745,3.76183 -1.87608,6.80269 z m 4.11822,0 c 0.0841,-2.70143 0.69838,-4.53975 1.84291,-5.51499 1.14451,-0.9752 2.31477,-1.43392 3.51078,-1.37617 1.19599,-0.0578 2.36625,0.40097 3.51079,1.37617 1.1445,0.97524 1.7588,2.81356 1.8429,5.51499 -0.0841,2.70145 -0.6984,4.53978 -1.8429,5.51499 -1.14454,0.97522 -2.3148,1.43394 -3.51079,1.37617 -1.19601,0.0578 -2.36627,-0.40095 -3.51078,-1.37617 -1.14453,-0.97521 -1.75883,-2.81354 -1.84291,-5.51499 z" style="fill:#ffffff" id="path3180" inkscape:connector-curvature="0"/>
      <path d="m 497.42851,661.65966 c -0.0292,0.85059 0.16642,1.78202 0.58671,2.79429 0.4203,1.01227 1.24021,1.88879 2.45975,2.62956 1.21953,0.74077 3.01359,1.1292 5.38217,1.1653 0.64043,0.0302 1.56813,-0.0881 2.7831,-0.35488 1.21495,-0.26675 2.33382,-0.86296 3.35661,-1.78863 1.02276,-0.92566 1.56609,-2.36178 1.63,-4.30837 -0.0469,-1.72907 -0.57085,-2.97255 -1.57179,-3.73042 -1.00097,-0.75786 -2.19754,-1.28065 -3.58972,-1.56836 l -4.80459,-1.18056 c -0.44729,-0.0738 -0.89801,-0.24879 -1.35215,-0.52507 -0.45415,-0.27625 -0.69896,-0.7876 -0.73442,-1.53404 0.0452,-0.87911 0.42154,-1.4957 1.12908,-1.84977 0.70753,-0.35403 1.47512,-0.52448 2.30278,-0.51134 1.73479,0.0686 2.84328,0.45302 3.32546,1.1531 0.48216,0.70011 0.71896,1.30412 0.7104,1.81202 l 3.95349,0 c 0.008,-0.83922 -0.21271,-1.74761 -0.66298,-2.72515 -0.45031,-0.97751 -1.23464,-1.82081 -2.35298,-2.52991 -1.11838,-0.70906 -2.6755,-1.08055 -4.67139,-1.11446 -2.10742,0.0343 -3.70997,0.39591 -4.80764,1.08497 -1.09769,0.6891 -1.83999,1.5002 -2.2269,2.43331 -0.38691,0.93314 -0.56791,1.78289 -0.54299,2.54923 0.0618,2.09287 0.70696,3.50794 1.93556,4.24521 1.2286,0.73728 2.66998,1.2532 4.32414,1.54776 l 2.11402,0.49419 c 1.06158,0.22193 1.91725,0.49877 2.56702,0.83051 0.64976,0.33175 0.98379,0.86941 1.00211,1.61297 -0.0498,1.01926 -0.49249,1.70563 -1.32813,2.05911 -0.83567,0.35348 -1.7657,0.51821 -2.7901,0.49419 -1.74567,-0.0641 -2.88734,-0.45758 -3.42499,-1.18056 -0.53766,-0.72297 -0.78704,-1.39104 -0.74814,-2.0042 z" style="fill:#ffffff" id="path3182" inkscape:connector-curvature="0"/>
      <path d="m 529.05269,648.01461 -14.49614,0 0,19.71256 14.96288,0 0,-3.48676 -10.92702,0 0,-5.1066 9.60918,0 0,-3.48676 -9.60918,0 0,-4.14568 10.46028,0 z" style="fill:#ffffff" id="path3184" inkscape:connector-curvature="0"/>
      <path d="m 556.6628,648.01461 -4.20059,0 0,12.98613 c 0.0109,1.20173 -0.29915,2.12718 -0.93003,2.77637 -0.6309,0.64919 -1.64787,0.97751 -3.05091,0.98494 -0.98724,0.007 -1.81318,-0.30886 -2.4778,-0.94719 -0.66464,-0.63832 -1.01012,-1.64042 -1.03642,-3.0063 l 0,-12.79395 -4.20059,0 0,13.0685 c 0.0212,0.98837 0.15043,1.88066 0.3878,2.67684 0.23737,0.79619 0.62059,1.49629 1.14967,2.10029 0.9163,0.95234 1.95272,1.5941 3.10926,1.92527 1.15653,0.33118 2.20667,0.48561 3.15044,0.4633 2.51153,0.0154 4.48256,-0.5714 5.91308,-1.76054 1.4305,-1.18913 2.15919,-3.07322 2.18609,-5.65226 z" style="fill:#ffffff" id="path3186" inkscape:connector-curvature="0"/>
      <path d="m 557.4741,661.65966 c -0.0292,0.85059 0.16642,1.78202 0.58672,2.79429 0.42029,1.01227 1.24021,1.88879 2.45975,2.62956 1.21953,0.74077 3.01358,1.1292 5.38216,1.1653 0.64043,0.0302 1.56813,-0.0881 2.7831,-0.35488 1.21495,-0.26675 2.33382,-0.86296 3.35661,-1.78863 1.02276,-0.92566 1.56609,-2.36178 1.63,-4.30837 -0.0469,-1.72907 -0.57084,-2.97255 -1.57178,-3.73042 -1.00098,-0.75786 -2.19755,-1.28065 -3.58972,-1.56836 l -4.8046,-1.18056 c -0.44729,-0.0738 -0.89801,-0.24879 -1.35215,-0.52507 -0.45415,-0.27625 -0.69896,-0.7876 -0.73441,-1.53404 0.0452,-0.87911 0.42154,-1.4957 1.12908,-1.84977 0.70752,-0.35403 1.47511,-0.52448 2.30277,-0.51134 1.73479,0.0686 2.84328,0.45302 3.32546,1.1531 0.48217,0.70011 0.71897,1.30412 0.7104,1.81202 l 3.95349,0 c 0.008,-0.83922 -0.2127,-1.74761 -0.66298,-2.72515 -0.45031,-0.97751 -1.23464,-1.82081 -2.35298,-2.52991 -1.11837,-0.70906 -2.6755,-1.08055 -4.67139,-1.11446 -2.10742,0.0343 -3.70996,0.39591 -4.80764,1.08497 -1.09769,0.6891 -1.83999,1.5002 -2.22689,2.43331 -0.38691,0.93314 -0.56791,1.78289 -0.543,2.54923 0.0618,2.09287 0.70696,3.50794 1.93557,4.24521 1.22859,0.73728 2.66997,1.2532 4.32413,1.54776 l 2.11402,0.49419 c 1.06158,0.22193 1.91725,0.49877 2.56703,0.83051 0.64975,0.33175 0.98378,0.86941 1.0021,1.61297 -0.0498,1.01926 -0.49248,1.70563 -1.32813,2.05911 -0.83567,0.35348 -1.7657,0.51821 -2.79009,0.49419 -1.74568,-0.0641 -2.88734,-0.45758 -3.42499,-1.18056 -0.53767,-0.72297 -0.78705,-1.39104 -0.74815,-2.0042 z" style="fill:#ffffff" id="path3188" inkscape:connector-curvature="0"/>
      <path d="m 589.09829,648.01461 -14.49615,0 0,19.71256 14.96288,0 0,-3.48676 -10.92702,0 0,-5.1066 9.60919,0 0,-3.48676 -9.60919,0 0,-4.14568 10.46029,0 z" style="fill:#ffffff" id="path3190" inkscape:connector-curvature="0"/>
    </g>
    <g style="font-size:68.23529816px;font-style:normal;font-variant:normal;font-weight:normal;font-stretch:normal;line-height:125%;letter-spacing:0px;word-spacing:0px;fill:#000000;fill-opacity:1;stroke:none;font-family:NiseMegaDriveK;-inkscape-font-specification:NiseMegaDriveK" id="text4039">
      <path d="m 9.1428623,794.76556 8.5294127,-12.79411 46.378679,0 10.928309,-17.45865 -10.928309,-13.72702 c -1.466046,-1.95461 -3.598397,-2.93194 -6.397059,-2.93198 l -18.65809,0 8.529413,-12.79412 25.588236,0 c 2.843071,6e-5 5.241966,1.24393 7.196692,3.73162 l 5.997243,7.5965 8.129596,-13.19393 c 2.843049,-4.44234 7.107755,-6.66354 12.794115,-6.6636 l 17.05883,0 -23.72243,38.04917 23.72243,30.18612 -25.588239,0 -9.395681,-11.99448 -4.997702,7.99632 c -1.777034,2.66544 -4.087081,3.99816 -6.930148,3.99816 z" style="fill:#000000" id="path3065" inkscape:connector-curvature="0"/>
      <path d="m 141.34875,752.1185 0,-12.79412 26.12133,0 3.46507,-5.86397 c 3.02079,-4.62003 7.37434,-6.93008 13.06066,-6.93014 l 17.05883,0 -7.99633,12.79411 20.79044,0 c 2.84306,6e-5 5.3308,1.51047 7.46324,4.53125 l 16.25919,22.65626 c 1.24377,1.77698 1.42146,3.64279 0.53309,5.59742 l -12.52757,18.125 c -2.13245,3.02084 -4.62019,4.53125 -7.46324,4.53125 l -34.11765,0 0,-12.79411 17.05883,0 c 2.84306,10e-6 5.15311,-1.06617 6.93014,-3.19853 l 4.53125,-7.72978 c 0.8884,-1.24385 0.8884,-2.48772 0,-3.73162 l -8.52941,-12.26103 c -1.55491,-1.95462 -3.9538,-2.93194 -7.19669,-2.93199 l -11.72794,0 -26.65442,42.64706 -25.58823,0 26.65441,-42.64706 z m 72.5,-25.58823 17.05883,0 17.85846,25.05514 -7.1967,13.32721 z m 22.12317,0 29.05331,0 -13.59375,21.32353 z" style="fill:#000000" id="path3067" inkscape:connector-curvature="0"/>
      <path d="m 307.67228,794.76556 0,-68.23529 25.58824,0 0,17.05882 42.64706,0 c 2.84307,5e-5 5.24196,1.51047 7.19669,4.53125 l 14.12684,21.05699 -25.58824,0 -5.33088,-8.52942 c -2.13241,-2.8431 -4.62015,-4.26466 -7.46324,-4.2647 l -25.58823,0 0,38.38235 z m 51.17647,-55.44118 -8.52941,-12.79411 17.05883,0 8.52941,12.79411 z m 21.32354,0 -8.52942,-12.79411 17.05883,0 8.52941,12.79411 z" style="fill:#000000" id="path3069" inkscape:connector-curvature="0"/>
      <path d="m 405.76054,739.32438 0,-12.79411 89.55883,0 0,12.79411 z m 0,17.05883 0,-12.79412 89.55883,0 0,12.79412 c -9e-5,2.84317 -0.62203,5.59746 -1.86581,8.26287 L 480.3929,790.7674 c -1.42165,2.66544 -3.554,3.99816 -6.39706,3.99816 l -55.44118,0 0,-12.79411 34.11765,0 c 2.84308,10e-6 5.06428,-1.42156 6.6636,-4.26471 l 10.39522,-21.32353 z" style="fill:#000000" id="path3071" inkscape:connector-curvature="0"/>
      <path d="m 503.84876,752.1185 0,-12.79412 61.5717,0 c 3.02077,6e-5 5.33082,-1.42151 6.93015,-4.2647 l 3.99816,-8.52941 25.58824,0 -8.52942,17.05882 c -2.84322,5.68632 -7.10792,8.52946 -12.79412,8.52941 l -17.05882,0 0,42.64706 -25.58824,0 0,-42.64706 z" style="fill:#000000" id="path3073" inkscape:connector-curvature="0"/>
      <path d="m 693.62818,780.90527 -7.99632,9.59559 c -1.77704,2.84314 -4.08709,4.2647 -6.93015,4.2647 l -68.2353,0 0,-12.79411 46.91177,0 c 2.26557,10e-6 4.30908,-1.42156 6.13051,-4.26471 l 2.3989,-4.0648 0,-34.31756 -55.44118,0 0,-12.79411 85.29412,0 0,46.91176 c -8e-5,2.84316 -0.71087,5.3309 -2.13235,7.46324 z m 10.66176,-28.78677 12.79412,-25.58823 17.05883,0 -12.79412,25.58823 z m -4.2647,0 0,-25.58823 12.79412,0 z" style="fill:#000000" id="path3075" inkscape:connector-curvature="0"/>
    </g>
    <flowRoot xml:space="preserve" id="flowRoot3018" style="font-size:40px;font-style:normal;font-weight:normal;line-height:125%;letter-spacing:0px;word-spacing:0px;fill:#000000;fill-opacity:1;stroke:none;font-family:Sans"><flowRegion id="flowRegion3020"><rect id="rect3022" width="332.85715" height="170" x="87.14286" y="828.07648"/></flowRegion><flowPara id="flowPara3024"/></flowRoot>    <path style="fill:#d40000;fill-opacity:1;stroke:#000000;stroke-width:0.78196591px;stroke-linecap:butt;stroke-linejoin:miter;stroke-opacity:0;display:inline" d="m 221.23314,300.21706 0,277.25659 -186.417554,0 z" id="path3038" inkscape:connector-curvature="0"/>
    <rect style="fill:#00aa00;fill-opacity:1;stroke:#000000;stroke-width:5.22118664;stroke-linecap:round;stroke-linejoin:miter;stroke-miterlimit:4;stroke-opacity:0;stroke-dasharray:none;stroke-dashoffset:0;display:inline" id="rect3834" width="90.049149" height="274.09698" x="418.69345" y="305.74643"/>
    <path style="fill:#00aa00;fill-opacity:1;stroke:#000000;stroke-width:5.15488958;stroke-linecap:round;stroke-linejoin:miter;stroke-miterlimit:4;stroke-opacity:0;stroke-dasharray:none;stroke-dashoffset:0;display:inline" d="m 528.12927,305.87607 c -0.96283,-0.0284 -2.03565,-0.0527 -3.24331,-0.0723 l -0.55302,93.9021 c 0.0725,0.002 0.14658,-0.002 0.21899,0 l 0,-0.29199 c 1.53191,-0.20301 3.07464,-0.30501 4.64742,-0.34065 l 18.90605,-92.024 c -7.3772,-0.89617 -14.32493,-0.99417 -19.97613,-1.17314 z m 34.67271,2.60872 -26.54632,91.00206 c 2.36444,0.32536 4.68198,0.84291 6.91031,1.53291 l 43.60313,-86.52494 c -7.70126,-2.70411 -15.70245,-4.73842 -23.96712,-6.01003 z m 38.54205,12.11739 -52.14369,82.77779 c 1.74264,0.84326 3.43178,1.81168 5.03674,2.87119 l 66.98627,-73.70192 c -6.24807,-4.53211 -12.89476,-8.52489 -19.87932,-11.94706 z m 32.41036,22.23954 -74.94287,66.88893 c 1.79115,1.55446 3.46825,3.2613 4.98807,5.08541 l 88.17954,-51.34072 c -5.36824,-7.48426 -11.48818,-14.39879 -18.22474,-20.63362 z m 25.06206,31.16942 -91.75635,45.23336 c 1.05226,1.64269 1.99178,3.351 2.82252,5.13407 l 100.7349,-24.23476 c -3.02743,-9.18461 -6.99684,-17.93293 -11.80107,-26.13267 z m 15.57254,40.05063 -102.65713,15.0129 c 1.05259,3.1696 1.7605,6.50684 2.06823,9.95183 l 103.60608,0 c -0.24378,-8.5413 -1.27796,-16.8878 -3.01718,-24.96473 z m -100.5889,33.18898 c -2.12702,22.27537 -20.80164,39.68565 -43.50579,39.68565 -1.95331,0 -3.8569,-0.13945 -5.74237,-0.38932 l 0,-1.89789 c -0.0724,0.002 -0.1465,-0.002 -0.21899,0 l 0,94.81341 c 7.77461,-0.0558 11.78634,-0.38053 17.83543,-0.38053 73.31463,0 133.00698,-58.63482 135.2378,-131.83132 z" id="path3838" inkscape:connector-curvature="0" sodipodi:nodetypes="ccccccccccccccccccccccccccccccccccccccsccc"/>
    <path style="fill:#d40000;fill-opacity:1;stroke:#000000;stroke-width:0.78196591px;stroke-linecap:butt;stroke-linejoin:miter;stroke-opacity:0;display:inline" d="m 377.23314,300.21706 0,277.25658 -186.41755,0 z" id="path3038-4" inkscape:connector-curvature="0"/>
  </g>
</svg>