<?xml version="1.0" encoding="UTF-8" standalone="no"?>
<!-- Generator: Adobe Illustrator 13.0.0, SVG Export Plug-In . SVG Version: 6.00 Build 14948)  -->

<svg
   xmlns:ns="&amp;ns_sfw;"
   xmlns:dc="http://purl.org/dc/elements/1.1/"
   xmlns:cc="http://creativecommons.org/ns#"
   xmlns:rdf="http://www.w3.org/1999/02/22-rdf-syntax-ns#"
   xmlns:svg="http://www.w3.org/2000/svg"
   xmlns="http://www.w3.org/2000/svg"
   xmlns:sodipodi="http://sodipodi.sourceforge.net/DTD/sodipodi-0.dtd"
   xmlns:inkscape="http://www.inkscape.org/namespaces/inkscape"
   version="1.2"
   id="Layer_3"
   x="0px"
   y="0px"
   width="598.189px"
   height="350.26px"
   viewBox="0 0 598.189 350.26"
   xml:space="preserve"
   inkscape:version="0.91 r13725"
   sodipodi:docname="famicom1con.svg"><defs
     id="defs49" /><sodipodi:namedview
     pagecolor="#ffffff"
     bordercolor="#666666"
     borderopacity="1"
     objecttolerance="10"
     gridtolerance="10"
     guidetolerance="10"
     inkscape:pageopacity="0"
     inkscape:pageshadow="2"
     inkscape:window-width="1061"
     inkscape:window-height="561"
     id="namedview47"
     showgrid="false"
     inkscape:zoom="2.6951407"
     inkscape:cx="229.64977"
     inkscape:cy="91.779675"
     inkscape:window-x="48"
     inkscape:window-y="48"
     inkscape:window-maximized="0"
     inkscape:current-layer="Layer_3" /><metadata
     id="metadata55"><rdf:RDF><cc:Work
         rdf:about=""><dc:format>image/svg+xml</dc:format><dc:type
           rdf:resource="http://purl.org/dc/dcmitype/StillImage" /><dc:title></dc:title></cc:Work></rdf:RDF><ns:sfw><ns:slices /><ns:sliceSourceBounds
         x="717.15"
         y="440.91"
         width="477.926"
         height="200.871"
         bottomLeftOrigin="true" /></ns:sfw></metadata><path
     id="path3"
     d="m 77.009,88.543 c -4.303,0 -7.798,3.495 -7.798,7.798 l 0,27.028 0,125.116 c 0,4.303 3.496,7.822 7.798,7.822 l 433.85,0 c 4.304,0 7.799,-3.52 7.799,-7.822 l 0,-82.173 c 0,-4.303 -3.495,-7.798 -7.799,-7.798 l -258.872,0 c -2.768,0 -4.417,-0.694 -5.425,-1.792 -1.006,-1.099 -1.452,-2.73 -1.453,-4.844 l 0,-55.534 c 0,-4.303 -3.495,-7.798 -7.798,-7.798 0,0 -109.18223,-0.01 -160.309,-0.01 z m 0,1.55 c 53.82619,-0.208334 108.95395,-0.001 160.303,-0.001 3.465,0 6.248,2.783 6.248,6.249 l 0,55.532 c 0.001,2.329 0.497,4.393 1.865,5.886 1.368,1.492 3.531,2.301 6.563,2.301 l 258.87,0 c 3.467,0 6.249,2.784 6.249,6.248 l 0,82.173 c 0,3.466 -2.782,6.271 -6.249,6.271 l -433.848,0 c -3.466,0 -6.249,-2.806 -6.249,-6.271 l 0,-125.115 0,-27.028 c 0,-3.465 2.783,-6.248 6.249,-6.248 z"
     inkscape:connector-curvature="0"
     style="fill:#f4f4f4"
     sodipodi:nodetypes="cscsssssssccscccccsccssssssscscc" /><path
     id="path5"
     fill="none"
     stroke="#F4F4F4"
     stroke-width="1.55"
     d="M195.104,167.793" /><path
     id="circle59"
     fill="#F4F4F4"
     d="M394.394,187.138c-15.292,0-27.706,12.414-27.706,27.706s12.414,27.706,27.706,27.706  s27.705-12.414,27.705-27.706S409.686,187.138,394.394,187.138z M394.394,188.688c14.455,0,26.155,11.702,26.155,26.156  S408.849,241,394.394,241c-14.454,0-26.156-11.702-26.156-26.156S379.939,188.688,394.394,188.688z" /><path
     id="circle61"
     fill="#F4F4F4"
     d="M394.394,192.245c-12.48,0-22.621,10.114-22.621,22.596c0,12.48,10.141,22.621,22.621,22.621  c12.481,0,22.621-10.141,22.621-22.621C417.015,202.359,406.875,192.245,394.394,192.245z M394.394,193.795  c11.645,0,21.071,9.403,21.071,21.046c0,11.644-9.427,21.071-21.071,21.071c-11.644,0-21.07-9.428-21.07-21.071  S382.75,193.795,394.394,193.795z" /><path
     id="circle63"
     fill="#F4F4F4"
     d="M458.261,187.138c-15.291,0-27.706,12.414-27.706,27.706s12.415,27.706,27.706,27.706  c15.292,0,27.706-12.414,27.706-27.706S473.553,187.138,458.261,187.138z M458.261,188.688c14.455,0,26.156,11.702,26.156,26.156  S472.716,241,458.261,241c-14.454,0-26.156-11.702-26.156-26.156S443.807,188.688,458.261,188.688z" /><path
     id="circle65"
     fill="#F4F4F4"
     d="M458.261,192.245c-12.48,0-22.62,10.114-22.62,22.596c0,12.48,10.14,22.621,22.62,22.621  c12.481,0,22.596-10.141,22.596-22.621C480.856,202.359,470.742,192.245,458.261,192.245z M458.261,193.795  c11.645,0,21.046,9.403,21.046,21.046c0,11.644-9.403,21.071-21.046,21.071s-21.07-9.428-21.07-21.071  S446.618,193.795,458.261,193.795z" /><path
     id="path67"
     fill="#F4F4F4"
     d="M117.647,141.727c-3.69,0-6.709,2.995-6.709,6.685v19.205c0,1.251-0.127,1.826-0.194,1.914  c-0.033,0.043-0.041,0.074-0.242,0.121s-0.569,0.073-1.065,0.073H89.626c-3.69,0-6.684,3.019-6.684,6.709v30.854  c0,3.689,2.994,6.684,6.684,6.684h19.617c0.632,0,1.097,0.015,1.38,0.049c0.283,0.034,0.352,0.105,0.314,0.071  c-0.036-0.031-0.02-0.098,0,0.073c0.021,0.173,0,0.502,0,0.945v20.173c0,3.69,3.019,6.709,6.709,6.709h30.854  c3.69,0,6.684-3.019,6.684-6.709v-20.101c0-0.35,0.02-0.638,0.048-0.8c0.029-0.161,0.051-0.171,0.073-0.193  c0.044-0.045,0.418-0.236,1.501-0.218h0.024h19.666c3.69,0,6.708-2.994,6.708-6.685v-30.854c0-3.689-3.018-6.708-6.708-6.708H156.76  c-0.475,0-0.813-0.02-1.018-0.073c-0.205-0.053-0.265-0.107-0.314-0.169c-0.1-0.124-0.243-0.668-0.243-1.816V148.41  c0-3.689-2.994-6.685-6.684-6.685L117.647,141.727L117.647,141.727z M117.647,143.276h30.854c2.852,0,5.134,2.283,5.134,5.135  v19.254c0,1.219,0.014,2.082,0.581,2.785c0.284,0.352,0.714,0.593,1.139,0.702c0.424,0.11,0.87,0.122,1.405,0.122h19.738  c2.852,0,5.159,2.306,5.159,5.159v30.854c0,2.852-2.307,5.134-5.159,5.134h-19.666c-1.215-0.021-2.056,0.084-2.64,0.679  c-0.292,0.296-0.422,0.667-0.485,1.017c-0.063,0.348-0.072,0.696-0.072,1.065v20.102c0,2.853-2.282,5.159-5.134,5.159h-30.854  c-2.853,0-5.159-2.307-5.159-5.159v-20.174c0-0.431,0.018-0.763-0.024-1.114c-0.042-0.351-0.175-0.773-0.509-1.065  s-0.718-0.384-1.138-0.436c-0.419-0.051-0.926-0.073-1.574-0.073H89.627c-2.853,0-5.134-2.281-5.134-5.134v-30.854  c0-2.853,2.281-5.159,5.134-5.159h19.81c0.541,0,0.983,0.003,1.405-0.097c0.421-0.098,0.86-0.338,1.138-0.702  c0.556-0.726,0.509-1.564,0.509-2.858v-19.205c0-2.852,2.306-5.134,5.159-5.134L117.647,143.276z" /><path
     id="path69"
     fill="#F4F4F4"
     d="M117.502,146.353c-1.01,0-1.841,0.831-1.841,1.841v25.938c0,0.171-0.034,0.217-0.097,0.217  h-26.06c-1.009,0-1.84,0.855-1.84,1.865v31.098c0,1.009,0.831,1.84,1.84,1.84h26.01h0.025c0.094,0.008,0.157,0.034,0.145,0.024  c-0.014-0.012-0.024-0.053-0.024,0.024v26.495c0,1.01,0.831,1.84,1.841,1.84h31.121c1.009,0,1.84-0.83,1.84-1.84V209.2  c0-0.03-0.078-0.049,0.146-0.049h26.035c1.01,0,1.841-0.831,1.841-1.84v-31.098c0-1.009-0.831-1.865-1.841-1.865h-26.059  c-0.054,0-0.121-0.042-0.121-0.193v-25.962c0-1.01-0.831-1.841-1.84-1.841H117.502L117.502,146.353z M117.502,147.903h31.121  c0.171,0,0.291,0.119,0.291,0.291v25.962c0,0.897,0.699,1.744,1.671,1.744h26.059c0.173,0,0.291,0.142,0.291,0.314v31.098  c0,0.171-0.118,0.29-0.291,0.29h-26.035c-0.937,0-1.695,0.78-1.695,1.599v26.495c0,0.173-0.12,0.29-0.291,0.29h-31.121  c-0.171,0-0.291-0.117-0.291-0.29V209.2c0-0.437-0.177-0.896-0.509-1.187c-0.331-0.292-0.744-0.412-1.162-0.412H89.505  c-0.173,0-0.291-0.119-0.291-0.29v-31.098c0-0.173,0.118-0.314,0.291-0.314h26.06c0.985,0,1.647-0.893,1.647-1.768v-25.938  C117.211,148.022,117.331,147.902,117.502,147.903L117.502,147.903z" /><path
     id="circle71"
     fill="#F4F4F4"
     d="M133.075,179.821c-6.629,0-12.037,5.408-12.037,12.037s5.408,12.012,12.037,12.012  c6.628,0,12.012-5.383,12.012-12.012S139.703,179.821,133.075,179.821z M133.075,181.371c5.791,0,10.462,4.695,10.462,10.487  c0,5.791-4.671,10.462-10.462,10.462c-5.792,0-10.487-4.671-10.487-10.462C122.588,186.066,127.283,181.371,133.075,181.371z" /><path
     id="path73"
     fill="none"
     stroke="#F4F4F4"
     stroke-width="1.55"
     d="M114.776,189.749" /><path
     id="polygon75"
     fill="#F4F4F4"
     d="M104.594,180.644l-1.308,1.332l-9.324,9.324l-0.557,0.557l0.557,0.533l9.324,9.348  l1.308,1.308v-1.864v-1.89h8.234h0.775v-0.774v-13.321v-0.775h-0.775h-8.234v-1.889v-1.89V180.644z M103.043,184.397v0.799v0.775  h0.775h8.234v11.77h-8.234h-0.775v0.775v0.775l-7.435-7.436L103.043,184.397L103.043,184.397z" /><path
     id="polygon77"
     fill="#F4F4F4"
     d="M125.64,211.311v0.774v8.234h-1.889h-1.889l1.332,1.332l9.324,9.324l0.557,0.557l0.532-0.557  l9.349-9.324l1.307-1.332h-1.864h-1.889v-8.234v-0.774h-0.775h-13.321H125.64L125.64,211.311z M127.19,212.86h11.77v8.234v0.774  h0.775h0.775l-7.46,7.459l-7.435-7.459h0.799h0.775v-0.774L127.19,212.86L127.19,212.86z" /><path
     id="polygon79"
     fill="#F4F4F4"
     d="M161.531,180.644v1.889v1.889h-8.234h-0.775v0.775v13.32v0.775h0.775h8.234v1.889v1.865  l1.332-1.309l9.324-9.354l0.557-0.535l-0.557-0.559l-9.324-9.322l-1.333-1.334L161.531,180.644z M163.082,184.397l7.459,7.459  l-7.459,7.436v-0.775v-0.775h-0.775h-8.235v-11.77h8.235h0.775v-0.775V184.397L163.082,184.397z" /><path
     id="polygon81"
     fill="#F4F4F4"
     d="M133.075,152.193l-0.557,0.557l-9.324,9.324l-1.332,1.308h1.889h1.889v8.234v0.775h0.775  h13.321h0.775v-0.775v-8.234h1.889h1.864l-1.308-1.308l-9.348-9.324L133.075,152.193L133.075,152.193z M133.05,154.373l7.46,7.459  h-0.775h-0.775v0.775v8.234h-11.771v-8.234v-0.775h-0.775h-0.798L133.05,154.373L133.05,154.373z" /><path
     id="path83"
     fill="#F4F4F4"
     d="M72.165,72.849c-9.068,0-16.42,7.566-16.42,16.856v167.159c0,9.291,7.352,16.855,16.42,16.855  h445.109c9.068,0,16.396-7.564,16.396-16.855V89.705c0-9.29-7.332-16.856-16.398-16.856H72.162H72.165z M72.165,74.399h445.109  c8.207,0,14.847,6.831,14.847,15.306v167.159c0,8.476-6.64,15.306-14.847,15.306H72.165c-8.208,0-14.872-6.828-14.872-15.306V89.705  C57.293,81.229,63.957,74.399,72.165,74.399L72.165,74.399z" /><path
     inkscape:connector-curvature="0"
     style="fill:#f4f4f4"
     id="path9"
     d="m 222.19485,194.4588 c -9.73623,-0.6116 -16.361,11.60087 -16.361,14.36 l 0,17.571 c 0,8.82347 13.80317,14.362 16.361,14.362 l 108.531,0 c 3.66859,0 16.361,-6.14581 16.361,-14.362 l 0,-17.57 c 0,-6.0494 -11.91183,-14.36 -16.361,-14.36 l -108.531,0 z m 0,1.887 108.531,0 c 3.12944,0 14.475,7.84927 14.475,12.474 l 0,17.571 c 0,6.30501 -11.73036,12.477 -14.475,12.477 l -108.531,0 c -1.6679,0 -14.476,-6.00559 -14.476,-12.477 l 0,-17.571 c 0.57425,-1.12129 5.00313,-12.474 14.476,-12.474 z"
     sodipodi:nodetypes="csssssssccssssssscs" /><g
     transform="translate(-0.96115782,-1.7302016)"
     id="g29"><path
       style="fill:#f4f4f4"
       inkscape:connector-curvature="0"
       d="m 232.69336,229.146 -0.004,0 0,-0.941 0,-0.944 0.004,0 28.788,0 c 4.553,-0.01 8.238,-3.691 8.247,-8.248 l 0,0 c -0.009,-4.555 -3.693,-8.237 -8.247,-8.247 l 0,0 -28.791,0 c -4.555,0.01 -8.24,3.692 -8.249,8.247 l 0,0 c 0.008,4.557 3.693,8.238 8.249,8.248 l 0,0 0,0.944 0,0.941 c -5.597,0 -10.133,-4.535 -10.133,-10.134 l 0,0 c 0,-5.598 4.536,-10.133 10.133,-10.133 l 0,0 28.792,0 c 5.596,0 10.131,4.535 10.131,10.133 l 0,0 c 0,5.599 -4.536,10.134 -10.131,10.134 l 0,0 -28.789,0 0,0 z"
       id="path18" /><path
       style="fill:#f4f4f4"
       inkscape:connector-curvature="0"
       d="m 294.59991,229.146 0,-0.941 0,-0.944 28.792,0 c 4.552,-0.01 8.238,-3.691 8.246,-8.248 l 0,0 c -0.008,-4.555 -3.694,-8.237 -8.246,-8.247 l 0,0 -28.792,0 c -4.555,0.01 -8.239,3.692 -8.248,8.247 l 0,0 c 0.009,4.557 3.695,8.238 8.248,8.248 l 0,0 0,0.944 0,0.941 c -5.595,0 -10.133,-4.535 -10.133,-10.134 l 0,0 c 0,-5.598 4.536,-10.133 10.133,-10.133 l 0,0 28.792,0 c 5.594,0 10.131,4.535 10.131,10.133 l 0,0 c 0,5.599 -4.537,10.134 -10.131,10.134 l 0,0 -28.792,0 0,0 z"
       id="path20" /></g></svg>